<?xml version="1.0" encoding="utf-8"?>
<!-- Generator: Adobe Illustrator 16.0.0, SVG Export Plug-In . SVG Version: 6.00 Build 0)  -->
<!DOCTYPE svg PUBLIC "-//W3C//DTD SVG 1.1//EN" "http://www.w3.org/Graphics/SVG/1.1/DTD/svg11.dtd">
<svg version="1.1" id="Layer_1" xmlns="http://www.w3.org/2000/svg" xmlns:xlink="http://www.w3.org/1999/xlink" x="0px" y="0px"
	 width="191.667px" height="108px" viewBox="0 0 191.667 108" enable-background="new 0 0 191.667 108" xml:space="preserve">
<defs>
	<filter id="Adobe_OpacityMaskFilter" filterUnits="userSpaceOnUse" x="17.125" y="36.551" width="156.963" height="26.789">
		<feFlood  style="flood-color:white;flood-opacity:1" result="back"/>
		<feBlend  in="SourceGraphic" in2="back" mode="normal"/>
	</filter>
</defs>
<mask maskUnits="userSpaceOnUse" x="17.125" y="36.551" width="156.963" height="26.789" id="SVGID_1_">
	<g filter="url(#Adobe_OpacityMaskFilter)">
		<rect x="114.859" y="41.979" width="22.83" height="22.83"/>
	</g>
</mask>
<g mask="url(#SVGID_1_)">
	<g>
		<path d="M41.852,57.254c-1.749,2.973-5.876,6.086-11.297,6.086c-7.414,0-13.43-5.631-13.43-13.395s6.016-13.395,13.43-13.395
			c5.526,0.035,9.443,3.287,11.332,6.225h-1.225c-0.979-1.363-4.371-5.246-10.107-5.281c-6.854,0-12.38,5.281-12.38,12.451
			s5.525,12.45,12.38,12.45c6.051,0,9.373-4.126,10.107-5.142H41.852z"/>
		<path d="M45.91,44.35h0.979c0,1.154,0,2.344,0,3.532c1.749-3.673,4.932-3.882,6.54-3.987v0.945c-0.07,0-0.175,0-0.279,0
			c-3.952,0-6.261,2.867-6.261,7.903v10.142H45.91V44.35z"/>
		<path d="M54.776,53.723c0.069,6.05,5.141,8.742,8.778,8.708c3.427,0,6.435-1.749,7.903-4.896h1.084
			c-0.839,1.958-2.168,3.428-3.741,4.407c-1.574,0.943-3.393,1.398-5.281,1.398c-6.995,0-9.758-5.561-9.758-9.688
			c0-5.561,4.267-9.758,9.793-9.758c2.482,0,4.861,0.875,6.645,2.483c2.028,1.819,3.218,4.616,3.043,7.345H54.776z M72.263,52.812
			c-0.21-4.477-4.372-8.184-8.708-8.008c-4.582,0-8.464,3.322-8.743,8.008H72.263z"/>
		<path d="M95.172,62.885h-0.979c0-1.608,0-3.217,0-4.791c-1.678,3.322-4.756,5.246-8.673,5.246c-6.085,0-9.758-4.721-9.758-9.723
			c0-5.105,3.777-9.723,9.758-9.723c4.477,0,7.694,2.764,8.673,5.352c0-1.645,0-3.287,0-4.896h0.979V62.885z M76.741,53.652
			c0.035,4.162,2.902,8.778,8.883,8.778c3.952,0,6.96-2.413,8.149-5.771c0.385-1.014,0.56-2.133,0.524-3.252
			c0-1.119-0.21-2.238-0.63-3.219c-1.259-3.217-4.371-5.385-8.148-5.385c-4.826,0-8.778,3.602-8.778,8.812V53.652z"/>
		<path d="M102.24,45.259h-4.092V44.35h4.092v-7.344h0.979v7.344h4.756v0.909h-4.756v17.626h-0.979V45.259z"/>
		<path d="M110.984,37.006h0.979v3.182h-0.979V37.006z M110.984,44.35h0.979v18.535h-0.979V44.35z"/>
		<path d="M116.474,53.582c0-5.49,4.197-9.688,9.758-9.688s9.758,4.197,9.758,9.723c0,5.561-4.197,9.723-9.758,9.723
			s-9.758-4.162-9.758-9.723V53.582z M117.455,53.617c0,5.002,3.777,8.778,8.777,8.778c5.002,0,8.779-3.776,8.779-8.813
			c0-5.035-3.777-8.812-8.779-8.812c-5,0-8.777,3.777-8.777,8.812V53.617z"/>
		<path d="M140.888,44.35h0.979c0,1.259,0,2.482-0.035,4.021c1.26-3.217,4.477-4.547,7.766-4.477
			c5.525,0.141,8.287,3.463,8.287,9.023v9.967h-0.979v-9.967c0-5.002-2.447-8.184-7.52-8.113c-4.406,0.069-7.52,2.553-7.52,7.414
			v10.666h-0.979V44.35z"/>
		<path d="M172.576,48.721c0-2.797-1.924-3.951-3.918-3.916c-2.482,0-4.16,1.678-4.057,3.881c0.105,2.238,1.436,3.078,4.057,3.812
			c2.449,0.664,5.213,1.329,5.422,5.281c0.174,3.043-2.238,5.561-5.422,5.561c-3.076,0-5.91-2.203-5.699-5.596h0.979
			c0,2.973,2.029,4.687,4.721,4.687c2.764,0,4.512-2.099,4.443-4.512c-0.07-2.553-1.469-3.776-4.477-4.441
			c-2.799-0.804-4.896-1.608-5.002-4.792c0-3.077,2.273-4.791,5.035-4.791c2.693,0.035,4.896,1.645,4.896,4.826H172.576z"/>
	</g>
</g>
<g>
	<g>
		<path d="M23.644,13.489h-7.029v-0.944h15.108v0.944h-7.029v24.937h-1.05V13.489z"/>
		<path d="M31.274,29.262c0.069,6.051,5.141,8.744,8.778,8.709c3.427,0,6.435-1.748,7.903-4.896h1.085
			c-0.84,1.959-2.169,3.428-3.742,4.406c-1.574,0.945-3.393,1.399-5.281,1.399c-6.995,0-9.758-5.561-9.758-9.688
			c0-5.561,4.267-9.757,9.793-9.757c2.482,0,4.861,0.873,6.645,2.482c2.028,1.818,3.218,4.617,3.043,7.344H31.274z M48.761,28.354
			c-0.21-4.477-4.372-8.184-8.708-8.01c-4.582,0-8.464,3.322-8.743,8.01H48.761z"/>
		<path d="M71.216,32.585c-1.294,3.776-4.861,6.295-9.023,6.295c-6.61,0-9.933-5.001-9.933-9.688c0-5.491,4.127-9.757,9.758-9.757
			c3.777,0,7.764,2.098,9.232,6.469h-1.084c-1.434-4.092-5.315-5.596-8.113-5.561c-2.623,0.035-4.337,0.77-6.261,2.483
			c-1.504,1.364-2.553,3.812-2.553,6.33c0,5.246,4.057,8.813,8.778,8.813c4.197-0.035,7.204-2.623,8.113-5.386H71.216z"/>
		<path d="M74.922,12.545h0.979v7.414c0,1.225,0,2.449,0,3.673c1.225-2.868,4.582-4.267,7.52-4.196c2.973,0,5.071,0.908,6.47,2.518
			c1.399,1.608,2.028,3.882,2.028,6.68v9.793h-0.979v-9.793c0-2.482-0.524-4.547-1.748-6.016c-1.225-1.434-3.078-2.273-5.771-2.273
			c-2.309,0.035-4.197,0.734-5.491,1.994c-1.294,1.259-2.028,3.078-2.028,5.42v10.668h-0.979V12.545z"/>
	</g>
</g>
<g>
	<path d="M24.687,93.404c-0.47,0-0.864-0.16-1.186-0.482c-0.32-0.32-0.48-0.715-0.48-1.184l-0.037-24.324
		c0-0.469,0.16-0.864,0.481-1.186c0.32-0.32,0.715-0.48,1.185-0.48c0.469,0,0.863,0.16,1.185,0.48
		c0.32,0.321,0.481,0.717,0.481,1.186l0.037,22.658h13.291c0.469,0,0.87,0.16,1.204,0.48c0.333,0.322,0.499,0.717,0.499,1.186
		s-0.166,0.863-0.499,1.184c-0.334,0.322-0.735,0.482-1.204,0.482H24.687z"/>
	<path d="M69.325,91.182c0.197,0.445,0.222,0.877,0.074,1.297c-0.124,0.346-0.327,0.617-0.611,0.814s-0.61,0.297-0.98,0.297
		c-0.691,0-1.198-0.309-1.519-0.926l-3.295-6.85H48.851l-3.332,6.85c-0.147,0.295-0.357,0.523-0.629,0.684
		c-0.272,0.162-0.568,0.242-0.889,0.242c-0.346,0-0.667-0.1-0.963-0.297s-0.494-0.469-0.592-0.814
		c-0.174-0.469-0.148-0.9,0.073-1.297L54.404,66.71c0.32-0.642,0.827-0.962,1.519-0.962c0.32,0,0.616,0.086,0.889,0.258
		c0.271,0.174,0.468,0.408,0.592,0.704L69.325,91.182z M61.365,82.445l-5.442-11.182L50.48,82.445H61.365z"/>
	<path d="M90.706,79.409c1.037,0.741,1.839,1.673,2.407,2.796c0.567,1.123,0.852,2.312,0.852,3.572c0,1.037-0.198,2.023-0.593,2.961
		c-0.395,0.939-0.963,1.766-1.703,2.48c-0.74,0.717-1.58,1.266-2.518,1.648c-0.938,0.383-1.925,0.562-2.962,0.537H72.787
		c-0.47,0-0.864-0.166-1.185-0.5c-0.321-0.334-0.481-0.734-0.481-1.203l-0.037-24.177c0-0.444,0.16-0.833,0.481-1.166
		c0.32-0.333,0.715-0.5,1.185-0.5h12.848c1.036-0.024,2.029,0.154,2.979,0.537s1.796,0.932,2.536,1.647
		c0.716,0.716,1.277,1.549,1.685,2.499c0.408,0.95,0.611,1.944,0.611,2.98c0,1.136-0.234,2.216-0.703,3.239
		C92.236,77.787,91.57,78.669,90.706,79.409z M74.453,77.965h11.181c0.617,0,1.191-0.116,1.722-0.352
		c0.531-0.234,1-0.555,1.407-0.963c0.407-0.406,0.728-0.875,0.963-1.406c0.234-0.531,0.352-1.104,0.352-1.722
		c0-0.593-0.117-1.153-0.352-1.685c-0.235-0.531-0.562-1.006-0.981-1.426c-0.42-0.395-0.907-0.697-1.462-0.906
		c-0.556-0.21-1.117-0.303-1.685-0.278H74.416L74.453,77.965z M86.189,90.035c0.567,0.025,1.123-0.068,1.666-0.277
		c0.543-0.211,1.024-0.512,1.444-0.908c0.889-0.838,1.333-1.863,1.333-3.072c0-0.617-0.118-1.197-0.353-1.74
		s-0.555-1.018-0.962-1.426c-0.407-0.406-0.877-0.729-1.407-0.963c-0.531-0.233-1.104-0.352-1.722-0.352H74.453v8.738H86.189z"/>
</g>
<g>
	<path d="M130.166,45.943c0.787,0.004,2.318,0,3.219,0c-0.211,0.229-0.338,0.374-0.475,0.512c-1.891,1.893-3.783,3.785-5.676,5.677
		c-0.131,0.132-0.273,0.257-0.373,0.407c-0.254,0.39-0.227,0.781,0.098,1.112s0.715,0.368,1.109,0.12
		c0.152-0.096,0.279-0.238,0.41-0.368c1.904-1.905,3.811-3.812,5.717-5.715c0.131-0.132,0.273-0.254,0.486-0.449
		c0,0.929-0.006,2.468,0,3.26c0.006,0.657,0.332,1.055,0.865,1.067c0.551,0.013,0.908-0.402,0.91-1.081
		c0.004-1.494,0.004-3.737,0-5.231c-0.004-0.765-0.316-1.082-1.072-1.085c-1.496-0.007-3.738-0.005-5.232-0.001
		c-0.689,0.002-1.1,0.345-1.094,0.896C129.062,45.615,129.468,45.939,130.166,45.943z"/>
	<path d="M135.736,54.354c-0.438,0-0.793,0.355-0.793,0.795v4.842c0,0.848-0.691,1.537-1.537,1.537h-12.779
		c-0.848,0-1.537-0.689-1.537-1.537V47.212c0-0.849,0.689-1.536,1.537-1.536h4.84c0.439,0,0.795-0.356,0.795-0.795
		c0-0.438-0.355-0.793-0.795-0.793h-4.84c-1.723,0-3.125,1.4-3.125,3.124V59.99c0,1.723,1.402,3.124,3.125,3.124h12.779
		c1.721,0,3.123-1.401,3.123-3.124v-4.842C136.529,54.709,136.175,54.354,135.736,54.354z"/>
</g>
</svg>
